<svg width="69" height="54" viewBox="0 0 69 54" fill="none" xmlns="http://www.w3.org/2000/svg">
<g filter="url(#filter0_di_6_5)">
<path d="M1.30876 36.7932C0.57232 36.8657 0.171979 36.5755 0.107737 35.9226C0.0434964 35.2698 0.379597 34.9071 1.11604 34.8347L6.47217 34.3076C7.20065 34.2359 7.59701 34.5265 7.66126 35.1794C7.7255 35.8322 7.39338 36.1945 6.66489 36.2662L4.60484 36.4689L4.82577 38.714L6.88582 38.5113C7.6143 38.4396 8.01066 38.7302 8.0749 39.3831C8.13915 40.0359 7.80703 40.3982 7.07854 40.4699L1.72241 40.9969C1.36414 41.0322 1.08323 40.9754 0.879686 40.8266C0.671766 40.6743 0.552333 40.4408 0.521387 40.1263C0.457146 39.4735 0.793247 39.1108 1.52969 39.0384L3.44046 38.8503L3.21953 36.6052L1.30876 36.7932Z" fill="#CC0818"/>
<path d="M7.83123 34.1128C7.80259 34.3793 7.70594 34.5861 7.54126 34.7334C7.37304 34.8762 7.15569 34.9333 6.88923 34.9047C6.82957 34.8983 6.77034 34.8879 6.71154 34.8735C6.65274 34.8591 6.59259 34.8386 6.53109 34.8119L1.50489 32.6726C1.19258 32.5465 0.945836 32.353 0.76467 32.0922C0.583931 31.8274 0.509802 31.5438 0.542283 31.2416L0.615366 30.5615C0.647847 30.2592 0.780313 29.9999 1.01277 29.7835C1.24522 29.5671 1.52743 29.4305 1.85941 29.3736L7.22538 28.3511C7.29115 28.338 7.35429 28.3307 7.4148 28.3292C7.47531 28.3276 7.53539 28.3301 7.59505 28.3365C7.86549 28.3656 8.06553 28.4695 8.19516 28.6484C8.32522 28.8233 8.37593 29.044 8.34729 29.3104C8.31225 29.6366 8.20465 29.8704 8.02449 30.012C7.84476 30.1495 7.58778 30.2386 7.25353 30.2791L6.46621 30.4178L6.22837 32.6311L6.96826 32.9338C7.28626 33.0444 7.51824 33.1881 7.66421 33.3647C7.8106 33.5373 7.86627 33.7867 7.83123 34.1128ZM4.87363 32.1536L5.04159 30.5906L2.42778 30.9916C2.33417 31.0016 2.24653 31.0123 2.16485 31.0237C2.0836 31.031 2.0103 31.0393 1.94496 31.0483C2.00688 31.0711 2.07655 31.0967 2.15395 31.1251C2.23136 31.1535 2.31473 31.1826 2.40407 31.2123L4.87363 32.1536Z" fill="#CC0818"/>
<path d="M9.59095 25.858C9.46514 26.2461 9.27979 26.6233 9.0349 26.9897C8.79124 27.3522 8.47753 27.6584 8.09379 27.9082C7.71005 28.1581 7.25087 28.3099 6.71624 28.3636C6.18161 28.4174 5.56232 28.3302 4.85838 28.102C4.15063 27.8726 3.59605 27.5793 3.19463 27.2221C2.78941 26.8637 2.5066 26.4714 2.34621 26.0452C2.18202 25.6177 2.1076 25.1857 2.12296 24.7492C2.13955 24.3088 2.21075 23.8946 2.33656 23.5065C2.44633 23.1678 2.59874 22.8598 2.79377 22.5824C2.985 22.3038 3.2038 22.0699 3.45016 21.8806C3.69776 21.6876 3.95472 21.5564 4.22105 21.4872C4.48738 21.4179 4.74802 21.4246 5.00296 21.5072C5.24268 21.585 5.40894 21.7271 5.50173 21.9338C5.59575 22.1367 5.60761 22.3466 5.5373 22.5635C5.4522 22.826 5.3353 22.9921 5.18661 23.0616C5.03535 23.1261 4.87694 23.1673 4.71138 23.1851C4.58242 23.1938 4.45044 23.2182 4.31542 23.2586C4.17784 23.2939 4.05193 23.3645 3.93769 23.4704C3.82469 23.5726 3.73427 23.7283 3.66644 23.9375C3.58256 24.1963 3.57849 24.4683 3.65422 24.7535C3.72738 25.0338 3.90795 25.3004 4.19593 25.5536C4.48391 25.8067 4.90947 26.0245 5.47262 26.2071C6.03197 26.3884 6.50441 26.4616 6.88993 26.4268C7.27165 26.3908 7.57432 26.2807 7.79796 26.0967C8.02283 25.9089 8.1772 25.6857 8.26108 25.4269C8.32891 25.2176 8.34704 25.0385 8.31544 24.8895C8.28508 24.7367 8.22645 24.6062 8.13953 24.4982C8.05005 24.3851 7.95563 24.2872 7.85628 24.2045C7.73266 24.093 7.63042 23.9673 7.54957 23.8276C7.46615 23.6828 7.46699 23.4791 7.55209 23.2166C7.6224 22.9997 7.75704 22.8373 7.956 22.7294C8.1524 22.6164 8.36856 22.5982 8.60447 22.6747C8.85941 22.7573 9.0738 22.9067 9.24762 23.1228C9.42268 23.3352 9.55445 23.5902 9.64294 23.888C9.73142 24.1858 9.77266 24.5061 9.76664 24.849C9.75806 25.1868 9.69949 25.5231 9.59095 25.858Z" fill="#CC0818"/>
<path d="M10.9098 22.9695C10.58 23.5366 10.0987 23.6361 9.46592 23.2681L4.79787 20.5535C4.48667 20.3725 4.29204 20.1622 4.21398 19.9224C4.13793 19.6792 4.17933 19.421 4.33819 19.1479C4.66797 18.5808 5.15098 18.4823 5.78722 18.8522L7.48846 19.8416L6.42276 17.091C6.30779 16.8113 6.23677 16.5595 6.20969 16.3355C6.18261 16.1115 6.23945 15.8785 6.38021 15.6365C6.51896 15.3979 6.67684 15.2537 6.85385 15.2039C7.02941 15.1487 7.21228 15.1764 7.40246 15.287C7.51311 15.3513 7.6006 15.4277 7.66492 15.516C7.72925 15.6043 7.78497 15.7153 7.83208 15.8492L8.57215 17.9662C8.65914 18.2065 8.72562 18.4025 8.77161 18.5541C8.81614 18.7003 8.84018 18.8022 8.84371 18.8598C8.89896 18.8364 9.00733 18.8092 9.16881 18.7782C9.32684 18.7452 9.55065 18.7064 9.84025 18.662L12.0044 18.2825C12.1618 18.2584 12.2946 18.2569 12.4026 18.278C12.5071 18.2972 12.6182 18.341 12.7357 18.4093C12.919 18.5159 13.0275 18.6715 13.0611 18.8762C13.0968 19.0774 13.0473 19.2939 12.9126 19.5255C12.7738 19.7641 12.6131 19.9251 12.4304 20.0086C12.2476 20.092 12.0076 20.1468 11.7102 20.1728L8.71771 20.5564L10.4553 21.5669C11.088 21.9349 11.2395 22.4024 10.9098 22.9695Z" fill="#CC0818"/>
<path d="M19.5947 13.3462C19.2941 13.5654 18.959 13.7406 18.5892 13.8717C18.2195 14.0028 17.8378 14.0634 17.4443 14.0533C17.0508 14.0433 16.6645 13.9414 16.2855 13.7475C15.9096 13.5513 15.565 13.2383 15.2514 12.8085C14.9379 12.3787 14.7463 11.9566 14.6766 11.542C14.6077 11.1219 14.6298 10.7245 14.7428 10.35C14.8534 9.97221 15.0276 9.62729 15.2654 9.31522C15.5031 9.00315 15.7723 8.73749 16.0728 8.51826C16.3701 8.30138 16.702 8.12857 17.0686 7.99982C17.4383 7.86871 17.82 7.80817 18.2135 7.81819C18.6046 7.82498 18.9881 7.92647 19.3639 8.12268C19.7374 8.31565 20.0809 8.62703 20.3944 9.05683C20.708 9.48662 20.9008 9.91042 20.9728 10.3282C21.0449 10.746 21.0256 11.1438 20.915 11.5215C20.8044 11.8993 20.6302 12.2442 20.3924 12.5563C20.1579 12.866 19.892 13.1293 19.5947 13.3462ZM18.7743 12.2216C18.9068 12.125 19.0108 12.0095 19.0861 11.8753C19.1648 11.7388 19.2116 11.5858 19.2266 11.4163C19.2393 11.2437 19.211 11.0589 19.1416 10.862C19.0731 10.6594 18.9575 10.4467 18.7948 10.2237C18.6322 10.0007 18.4661 9.82732 18.2965 9.70346C18.1301 9.57724 17.9628 9.49381 17.7946 9.45318C17.6263 9.41254 17.4663 9.41042 17.3146 9.44681C17.1638 9.47761 17.0221 9.54134 16.8896 9.63799C16.7571 9.73464 16.65 9.85243 16.5681 9.99136C16.4839 10.1271 16.4355 10.2812 16.4228 10.4539C16.4133 10.6242 16.4417 10.809 16.5078 11.0082C16.574 11.2075 16.6884 11.4187 16.8511 11.6417C17.0137 11.8646 17.181 12.0397 17.3529 12.1668C17.5225 12.2906 17.6898 12.374 17.8549 12.417C18.0208 12.4544 18.1824 12.4554 18.3397 12.4199C18.4969 12.3844 18.6418 12.3183 18.7743 12.2216Z" fill="#9A4993"/>
<path d="M26.2033 9.88891C25.6009 10.1585 25.1485 9.95558 24.8463 9.28014L24.0203 7.43452C23.839 7.02925 23.6459 6.74971 23.4412 6.59591C23.2349 6.43845 22.9967 6.42017 22.7265 6.54108C22.5987 6.59827 22.4941 6.67794 22.4128 6.78009C22.3314 6.88224 22.2752 7.00159 22.2443 7.13813C22.2118 7.27102 22.203 7.41299 22.218 7.56403C22.2367 7.71344 22.2795 7.863 22.3465 8.01269L23.2362 10.0007C23.5384 10.6761 23.3884 11.1487 22.7859 11.4183C22.1908 11.6846 21.7421 11.48 21.4398 10.8046L19.9423 7.45838C19.6417 6.78659 19.7889 6.31753 20.3841 6.0512C20.8623 5.83715 21.2411 5.91964 21.5203 6.29867L21.5919 6.44408C21.6533 6.14054 21.7801 5.85592 21.9723 5.59021C22.1645 5.32451 22.4341 5.11405 22.7809 4.95883C23.157 4.79053 23.5201 4.71568 23.8702 4.73428C24.2224 4.74759 24.5531 4.88442 24.8625 5.14478C25.1702 5.40148 25.449 5.80914 25.699 6.36775L26.6426 8.47624C26.7896 8.80484 26.8257 9.09108 26.7508 9.33495C26.6743 9.57518 26.4918 9.75983 26.2033 9.88891Z" fill="#9A4993"/>
<path d="M33.1439 4.3252C32.4399 4.32919 32.0866 4.09919 32.0839 3.63519C32.0813 3.1712 32.432 2.93721 33.136 2.93322L33.64 2.93036L33.634 1.88638C33.6299 1.15039 33.9538 0.780547 34.6058 0.776851C35.2618 0.773131 35.5918 1.13927 35.596 1.87525L35.6019 2.91924L36.9999 2.91131C37.7079 2.9073 38.0632 3.13729 38.0658 3.60128C38.0685 4.06527 37.7158 4.29927 37.0078 4.30329L35.6098 4.31121L35.6214 6.35118C35.6227 6.58318 35.6498 6.77503 35.7026 6.92673C35.7555 7.07843 35.8282 7.19202 35.9206 7.2675C36.017 7.33895 36.1272 7.37433 36.2512 7.37363C36.4472 7.37252 36.5987 7.29366 36.7059 7.13705C36.813 6.98044 36.884 6.81603 36.9191 6.64383C36.9702 6.49954 37.0475 6.3731 37.1509 6.26451C37.2543 6.15192 37.414 6.09501 37.63 6.09379C37.826 6.09268 37.9883 6.14976 38.1169 6.26503C38.2496 6.37628 38.3167 6.5779 38.3184 6.8699C38.3205 7.23789 38.2103 7.56252 37.9879 7.84379C37.7695 8.12503 37.4847 8.34465 37.1336 8.50264C36.7825 8.66064 36.4109 8.74074 36.019 8.74297C35.615 8.74526 35.2326 8.68542 34.8719 8.56347C34.5152 8.44149 34.2241 8.23913 33.9985 7.95641C33.7769 7.67366 33.6647 7.29229 33.662 6.8123L33.6479 4.32234L33.1439 4.3252Z" fill="#EEC259"/>
<path d="M42.7293 9.79193C42.0826 9.66035 41.8329 9.23198 41.9805 8.50684L42.3836 6.52543C42.4737 6.08251 42.4761 5.74009 42.3906 5.49819C42.3098 5.25317 42.1244 5.10115 41.8343 5.04214C41.7011 5.01502 41.5716 5.0193 41.446 5.05497C41.3243 5.09143 41.2115 5.15421 41.1076 5.24329C41.0077 5.33317 40.9199 5.44388 40.8441 5.57542C40.7731 5.70384 40.7208 5.85036 40.6873 6.01499L40.2519 8.15514C40.1044 8.88028 39.7092 9.17746 39.0664 9.04667C38.7567 8.98367 38.5363 8.8429 38.4053 8.62439C38.2789 8.40275 38.2516 8.11554 38.3234 7.76277L39.7171 0.913106C39.788 0.564253 39.9246 0.314462 40.1267 0.163731C40.3335 0.0098784 40.5917 -0.0355465 40.9014 0.0274561C41.5442 0.158246 41.7923 0.584253 41.6455 1.30548L41.0606 4.18057C41.2839 4.00559 41.5405 3.87819 41.8302 3.79835C42.12 3.71851 42.4275 3.71169 42.7528 3.77788C43.1566 3.86002 43.5016 4.00983 43.788 4.22729C44.0791 4.44164 44.2785 4.7455 44.3863 5.13888C44.4987 5.52913 44.4931 6.02803 44.3695 6.63559L43.909 8.89921C43.7614 9.62435 43.3682 9.92193 42.7293 9.79193Z" fill="#EEC259"/>
<path d="M46.1237 11.3474C45.633 11.1317 45.2249 10.8277 44.8992 10.4355C44.5751 10.0396 44.3761 9.58285 44.3022 9.06532C44.2335 8.54573 44.3287 7.99117 44.5879 7.40163C44.7827 6.95856 45.0256 6.59998 45.3165 6.32589C45.609 6.04813 45.9323 5.84945 46.2864 5.72985C46.6405 5.61024 47.0099 5.5651 47.3946 5.59442C47.781 5.62009 48.1645 5.71663 48.5454 5.88406C49.0543 6.10784 49.4621 6.40289 49.7686 6.76922C50.0766 7.13189 50.2667 7.53442 50.3387 7.97683C50.4124 8.41557 50.351 8.85831 50.1546 9.30504C50.0258 9.59798 49.8653 9.77428 49.673 9.83394C49.4844 9.89521 49.24 9.85984 48.9397 9.72783L46.1769 8.51317C46.1052 8.76567 46.0826 8.99604 46.109 9.20429C46.1391 9.41414 46.2154 9.59843 46.3379 9.75714C46.4603 9.91586 46.6205 10.0387 46.8182 10.1256C47.0782 10.2399 47.3022 10.2969 47.4902 10.2966C47.6783 10.2962 47.8557 10.2803 48.0225 10.2487C48.1808 10.2266 48.3335 10.2172 48.4805 10.2207C48.6292 10.2205 48.7749 10.2518 48.9177 10.3146C49.1008 10.3951 49.2302 10.5132 49.306 10.6688C49.3817 10.8245 49.3761 11.0012 49.2892 11.1989C49.2087 11.382 49.0959 11.5094 48.9508 11.581C48.8073 11.649 48.6424 11.701 48.4561 11.7371C48.1656 11.8016 47.8173 11.8037 47.4113 11.7431C47.007 11.679 46.5778 11.5471 46.1237 11.3474ZM46.6435 7.57128L48.6373 8.44787C48.721 8.14821 48.7156 7.87713 48.6212 7.63463C48.5321 7.39009 48.3466 7.20583 48.0646 7.08187C47.9072 7.01265 47.7446 6.98487 47.5769 6.99854C47.4109 7.00854 47.2478 7.06139 47.0877 7.15706C46.933 7.25069 46.7849 7.38876 46.6435 7.57128Z" fill="#EEC259"/>
<path d="M58.852 16.418C58.8952 16.4653 58.9627 16.5716 59.0544 16.7371C59.1518 16.9028 59.2263 17.1057 59.2779 17.3458C59.3321 17.5889 59.3206 17.8488 59.2431 18.1257C59.1657 18.4025 58.9809 18.6746 58.6887 18.9419C58.3404 19.2605 57.9742 19.4409 57.5901 19.4833C57.2087 19.5286 56.8241 19.4548 56.4363 19.262C56.0515 19.0665 55.6768 18.7696 55.3124 18.3711L53.7735 16.6888C53.2794 16.1487 53.3039 15.6303 53.847 15.1335L57.6986 11.6102C58.2416 11.1134 58.7602 11.1351 59.2543 11.6752L60.5664 13.1096C60.8823 13.4549 61.1436 13.8176 61.3503 14.1977C61.5598 14.5808 61.6577 14.9575 61.644 15.3277C61.6304 15.698 61.445 16.0465 61.0878 16.3732C60.8193 16.6189 60.5591 16.7701 60.3075 16.8268C60.0558 16.8836 59.8278 16.8862 59.6234 16.8346C59.4219 16.7803 59.2525 16.7077 59.115 16.6166C58.9802 16.5285 58.8925 16.4623 58.852 16.418ZM58.81 13.2608L57.6279 14.342L58.1665 14.9308C58.2934 15.0696 58.4313 15.1847 58.5801 15.2763C58.7318 15.3651 58.8884 15.4089 59.0499 15.4076C59.2113 15.4063 59.3702 15.3341 59.5267 15.191C59.6949 15.0371 59.7811 14.8824 59.7852 14.7269C59.7949 14.5716 59.7522 14.4182 59.657 14.2667C59.5648 14.1126 59.4512 13.9617 59.3162 13.8141L58.81 13.2608ZM55.9389 16.9848C56.1954 17.2652 56.4532 17.4522 56.7123 17.5459C56.9744 17.6368 57.2324 17.5662 57.4862 17.334C57.7459 17.0964 57.8349 16.847 57.7531 16.5857C57.6743 16.3217 57.5214 16.0658 57.2947 15.8178L56.7115 15.1803L55.3922 16.3872L55.9389 16.9848Z" fill="#649AD2"/>
<path d="M58.0526 22.6834C57.7804 22.2216 57.6267 21.7364 57.5916 21.2278C57.5599 20.7172 57.6652 20.2303 57.9075 19.767C58.1553 19.3052 58.5566 18.9108 59.1114 18.5837C59.5284 18.338 59.935 18.1888 60.3312 18.1363C60.7309 18.0818 61.1093 18.1095 61.4666 18.2193C61.8238 18.3291 62.15 18.5082 62.4451 18.7568C62.7437 19.0034 62.9986 19.3058 63.2098 19.6642C63.4922 20.1432 63.6507 20.6208 63.6854 21.0972C63.7236 21.5715 63.6427 22.0093 63.4426 22.4104C63.2461 22.8095 62.9376 23.133 62.5172 23.3808C62.2415 23.5433 62.0083 23.5926 61.8174 23.5287C61.6285 23.4682 61.4508 23.2967 61.2842 23.0141L59.7516 20.4142C59.5459 20.5773 59.393 20.751 59.2928 20.9354C59.1946 21.1233 59.1488 21.3175 59.1555 21.5178C59.1622 21.7182 59.2203 21.9114 59.33 22.0975C59.4742 22.3422 59.6228 22.5193 59.7756 22.6289C59.9284 22.7384 60.0817 22.8291 60.2355 22.901C60.3769 22.9755 60.5063 23.0571 60.6236 23.1458C60.7443 23.2325 60.8443 23.3431 60.9235 23.4775C61.0251 23.6498 61.0612 23.8212 61.0317 23.9918C61.0022 24.1624 60.8945 24.3025 60.7084 24.4122C60.5361 24.5138 60.3701 24.5512 60.2105 24.5246C60.0543 24.4959 59.8901 24.4419 59.7178 24.3623C59.4443 24.2449 59.1605 24.0431 58.8664 23.7568C58.5757 23.4685 58.3044 23.1107 58.0526 22.6834ZM60.6805 19.9224L61.7866 21.7986C62.0296 21.6043 62.1836 21.3812 62.2487 21.1292C62.3192 20.8787 62.2763 20.6208 62.1199 20.3554C62.0325 20.2073 61.9168 20.0898 61.7727 20.0029C61.6321 19.914 61.4689 19.8616 61.2831 19.8457C61.1028 19.8313 60.902 19.8568 60.6805 19.9224Z" fill="#649AD2"/>
<path d="M60.9053 29.5975C60.8036 29.2941 60.7881 29.0462 60.8587 28.8538C60.933 28.6602 61.0726 28.5227 61.2774 28.4415L61.3552 28.4091C61.216 28.3967 61.0559 28.3406 60.8749 28.2409C60.6989 28.1438 60.5267 27.9948 60.3582 27.7939C60.1909 27.5968 60.0527 27.3352 59.9434 27.009C59.8088 26.6069 59.7583 26.2231 59.7919 25.8575C59.8293 25.4906 59.9516 25.1691 60.1586 24.8931C60.3707 24.6196 60.6702 24.418 61.0571 24.2885C61.463 24.1525 61.8317 24.1514 62.1633 24.285C62.4962 24.4224 62.7849 24.6484 63.0294 24.963C63.274 25.2776 63.4643 25.6379 63.6002 26.0437C63.6815 26.2865 63.7311 26.5103 63.7491 26.7152C63.7671 26.9201 63.7642 27.094 63.7404 27.237C63.7216 27.3825 63.6984 27.4831 63.6706 27.5387L64.103 27.3939C64.2016 27.3609 64.2831 27.302 64.3475 27.2171C64.4119 27.1323 64.4573 27.0285 64.4837 26.9058C64.5151 26.7856 64.5257 26.6534 64.5154 26.5092C64.505 26.365 64.4745 26.217 64.4237 26.0653C64.35 25.8453 64.2618 25.645 64.1591 25.4642C64.0614 25.286 63.9626 25.1293 63.8624 24.9941C63.8079 24.9195 63.7598 24.845 63.7179 24.7704C63.6811 24.6984 63.6475 24.6168 63.617 24.5258C63.5459 24.3134 63.538 24.1262 63.5934 23.9642C63.6539 23.8047 63.7923 23.6888 64.0085 23.6164C64.2057 23.5504 64.3771 23.5647 64.5227 23.6593C64.6734 23.7565 64.8083 23.8822 64.9274 24.0363C65.0642 24.2056 65.2138 24.4445 65.3762 24.7529C65.5398 25.0651 65.6864 25.4146 65.816 25.8015C65.9316 26.1467 66.0023 26.49 66.028 26.8315C66.0538 27.173 66.0296 27.4911 65.9554 27.786C65.885 28.0795 65.7595 28.3346 65.5789 28.5511C65.4021 28.7664 65.1677 28.923 64.8756 29.0208L62.4178 29.8439L62.4654 29.9862C62.5391 30.2061 62.5381 30.3921 62.4624 30.544C62.3906 30.6946 62.256 30.803 62.0588 30.869C61.8577 30.9363 61.6749 30.9195 61.5103 30.8186C61.3458 30.7176 61.2069 30.4983 61.0939 30.1608L60.9053 29.5975ZM62.6238 27.8893C62.6679 27.8324 62.702 27.7387 62.7258 27.6084C62.7497 27.4781 62.7558 27.3326 62.7442 27.172C62.7376 27.0139 62.7083 26.8571 62.6562 26.7015C62.566 26.4322 62.4411 26.2231 62.2816 26.074C62.1232 25.9288 61.9227 25.8968 61.68 25.9781C61.5169 26.0328 61.3987 26.1145 61.3255 26.2234C61.2523 26.3323 61.2145 26.4588 61.2122 26.603C61.2149 26.7498 61.2436 26.9047 61.2982 27.0678C61.363 27.2612 61.4613 27.4223 61.593 27.5512C61.7298 27.6825 61.8691 27.7835 62.0109 27.8542C62.1564 27.9235 62.2773 27.9632 62.3734 27.9732L62.6238 27.8893Z" fill="#649AD2"/>
<path d="M61.2743 33.7679C61.2273 33.3626 61.2389 32.9425 61.3092 32.5075C61.38 32.0764 61.5379 31.6675 61.7829 31.2807C62.0279 30.8938 62.3823 30.5648 62.8461 30.2935C63.3099 30.0222 63.9094 29.8438 64.6444 29.7585C65.3835 29.6727 66.0098 29.7087 66.5234 29.8665C67.041 30.0239 67.4614 30.263 67.7846 30.5839C68.1117 30.9043 68.3591 31.2662 68.5267 31.6695C68.6948 32.0769 68.8024 32.4832 68.8494 32.8885C68.8905 33.2421 68.88 33.5856 68.8181 33.919C68.7601 34.2519 68.6584 34.5556 68.5131 34.8302C68.3683 35.1088 68.1892 35.3349 67.9758 35.5087C67.7624 35.6825 67.5226 35.7848 67.2564 35.8157C67.0061 35.8448 66.7957 35.7846 66.6254 35.6353C66.4555 35.4899 66.3574 35.304 66.3311 35.0775C66.2993 34.8033 66.3365 34.6037 66.4428 34.4786C66.5535 34.357 66.6804 34.2537 66.8236 34.1686C66.9372 34.1071 67.0471 34.0299 67.1531 33.9371C67.2635 33.8478 67.3486 33.7312 67.4084 33.5873C67.4687 33.4474 67.4861 33.2682 67.4608 33.0497C67.4294 32.7795 67.3199 32.5305 67.1324 32.3026C66.9493 32.0782 66.6742 31.9108 66.307 31.8004C65.9398 31.69 65.4622 31.6689 64.8742 31.7372C64.2901 31.805 63.83 31.935 63.4939 32.127C63.1618 32.3186 62.9323 32.5445 62.8055 32.8049C62.6791 33.0692 62.6316 33.3365 62.663 33.6067C62.6884 33.8252 62.7464 33.9957 62.8371 34.118C62.9283 34.2443 63.0359 34.3386 63.1599 34.4007C63.2883 34.4663 63.4149 34.516 63.5396 34.5499C63.6984 34.5999 63.8437 34.6716 63.9753 34.7651C64.1114 34.862 64.1954 35.0476 64.2272 35.3217C64.2535 35.5482 64.1986 35.7519 64.0626 35.9328C63.931 36.1172 63.742 36.2237 63.4956 36.2523C63.2294 36.2832 62.9723 36.2366 62.7244 36.1123C62.4768 35.9921 62.2509 35.8149 62.0466 35.581C61.8422 35.347 61.6715 35.0728 61.5343 34.7585C61.4016 34.4478 61.3149 34.1176 61.2743 33.7679Z" fill="#649AD2"/>
<path d="M67.2839 40.7709C68.018 40.8638 68.3439 41.2357 68.2614 41.8865C68.179 42.5373 67.7707 42.8162 67.0366 42.7233L61.6972 42.0469C60.971 41.955 60.6492 41.5836 60.7316 40.9328C60.814 40.282 61.2183 40.0026 61.9445 40.0945L63.9981 40.3547L64.2816 38.1165L62.228 37.8564C61.5018 37.7644 61.18 37.393 61.2624 36.7422C61.3448 36.0914 61.7491 35.812 62.4753 35.904L67.8147 36.5803C68.1718 36.6256 68.4331 36.7433 68.5985 36.9336C68.7674 37.1284 68.8319 37.3825 68.7922 37.696C68.7098 38.3468 68.3015 38.6257 67.5674 38.5327L65.6626 38.2915L65.3791 40.5296L67.2839 40.7709Z" fill="#649AD2"/>
<path d="M46.8706 22.6012C46.8706 23.2114 46.7496 23.8156 46.5146 24.3794C46.2795 24.9431 45.935 25.4554 45.5007 25.8869C45.0663 26.3184 44.5507 26.6606 43.9833 26.8941C43.4158 27.1277 42.8076 27.2479 42.1934 27.2479H40.6347C39.4242 27.2467 38.23 27.5262 37.1472 28.0641C36.0645 28.6019 35.1229 29.3833 34.3975 30.3461C33.6723 29.3833 32.731 28.6019 31.6485 28.0641C30.5659 27.5262 29.372 27.2467 28.1616 27.2479H26.603C25.3625 27.2479 24.1728 26.7583 23.2957 25.8869C22.4185 25.0155 21.9257 23.8336 21.9257 22.6012H18.8071C18.8071 24.6553 19.6285 26.6252 21.0905 28.0777C22.5525 29.5301 24.5354 30.3461 26.603 30.3461H28.1616C29.4021 30.3461 30.5918 30.8356 31.4689 31.7071C32.3461 32.5785 32.8389 33.7604 32.8389 34.9928H35.9575C35.9575 33.7604 36.4503 32.5785 37.3274 31.7071C38.2046 30.8356 39.3942 30.3461 40.6347 30.3461H42.1934C44.2607 30.3457 46.2433 29.5296 47.705 28.0772C49.1667 26.6248 49.9879 24.655 49.9879 22.6012H46.8706Z" fill="#1E274A"/>
<path d="M34.3975 45.8345L36.7361 38.091H32.0589L34.3975 45.8345Z" fill="#1E274A"/>
<path d="M25.0815 41.1879C26.8039 41.1879 28.2001 39.8007 28.2001 38.0896C28.2001 36.3785 26.8039 34.9914 25.0815 34.9914C23.3591 34.9914 21.9629 36.3785 21.9629 38.0896C21.9629 39.8007 23.3591 41.1879 25.0815 41.1879Z" fill="#1E274A"/>
<path d="M43.8581 41.1824C45.5787 41.1047 46.9101 39.6561 46.832 37.9468C46.7539 36.2374 45.2957 34.9147 43.5751 34.9923C41.8545 35.0699 40.5231 36.5185 40.6012 38.2279C40.6793 39.9372 42.1375 41.26 43.8581 41.1824Z" fill="#1E274A"/>
</g>
<defs>
<filter id="filter0_di_6_5" x="6.10203e-06" y="0" width="69.374" height="53.7787" filterUnits="userSpaceOnUse" color-interpolation-filters="sRGB">
<feFlood flood-opacity="0" result="BackgroundImageFix"/>
<feColorMatrix in="SourceAlpha" type="matrix" values="0 0 0 0 0 0 0 0 0 0 0 0 0 0 0 0 0 0 127 0" result="hardAlpha"/>
<feOffset dy="0.3"/>
<feGaussianBlur stdDeviation="0.05"/>
<feComposite in2="hardAlpha" operator="out"/>
<feColorMatrix type="matrix" values="0 0 0 0 0 0 0 0 0 0 0 0 0 0 0 0 0 0 0.25 0"/>
<feBlend mode="normal" in2="BackgroundImageFix" result="effect1_dropShadow_6_5"/>
<feBlend mode="normal" in="SourceGraphic" in2="effect1_dropShadow_6_5" result="shape"/>
<feColorMatrix in="SourceAlpha" type="matrix" values="0 0 0 0 0 0 0 0 0 0 0 0 0 0 0 0 0 0 127 0" result="hardAlpha"/>
<feOffset dx="0.5" dy="0.5"/>
<feGaussianBlur stdDeviation="0.4"/>
<feComposite in2="hardAlpha" operator="arithmetic" k2="-1" k3="1"/>
<feColorMatrix type="matrix" values="0 0 0 0 1 0 0 0 0 1 0 0 0 0 1 0 0 0 0.25 0"/>
<feBlend mode="normal" in2="shape" result="effect2_innerShadow_6_5"/>
</filter>
</defs>
</svg>
