<svg width="123" height="135" viewBox="0 0 123 135" fill="none" xmlns="http://www.w3.org/2000/svg">
<path d="M90.9307 134.379L52.3427 0L49.7249 4.0721L87.1494 134.379H90.9307Z" fill="#9A4993"/>
<path d="M53.0214 4.26593C44.1069 1.58423 122.115 5.51345 121.734 15.1045C121.354 24.6956 99.3227 36.907 97.4266 33.5462C90.9873 22.1323 61.9359 6.94764 53.0214 4.26593Z" fill="#CC0818"/>
<path d="M52.3427 4.45983C58.3985 -2.61028 -0.368006 39.1036 5.13041 46.9713C10.6288 54.839 35.7658 53.2237 35.5473 49.3711C34.8053 36.2871 46.2869 11.5299 52.3427 4.45983Z" fill="#CC0818"/>
<path d="M97.6205 33.7403C74.4867 48.1529 61.0063 51.4632 35.5695 49.6408C32.374 33.0706 37.8785 22.2394 51.9548 3.68433C76.8293 4.4624 84.1716 13.4802 97.6205 33.7403Z" fill="#D9D9D9"/>
</svg>
