<svg width="783" height="74" viewBox="0 0 783 74" fill="none" xmlns="http://www.w3.org/2000/svg">
<rect y="59" width="783" height="16" fill="#EEC259"/>
<path d="M39.9208 58.7286L22.9797 0L21.8304 1.77966L38.2607 58.7286H39.9208Z" fill="#9A4993"/>
<path d="M23.2777 1.86437C19.364 0.692366 53.6115 2.40958 53.4442 6.60122C53.2774 10.7929 43.6051 16.1297 42.7727 14.6609C39.9456 9.67263 27.1914 3.03637 23.2777 1.86437Z" fill="#CC0818"/>
<path d="M22.9797 1.94911C25.6384 -1.14079 -0.161564 17.0897 2.25238 20.5282C4.6663 23.9667 15.7021 23.2607 15.6061 21.577C15.2804 15.8588 20.3211 5.039 22.9797 1.94911Z" fill="#CC0818"/>
<path d="M42.8578 14.7458C32.7015 21.0446 26.7833 22.4913 15.6159 21.6949C14.213 14.4531 16.6296 9.71944 22.8094 1.61019C33.7299 1.95024 36.9534 5.89135 42.8578 14.7458Z" fill="#D9D9D9"/>
<path d="M460.921 73.7286L443.98 15L442.83 16.7797L459.261 73.7286H460.921Z" fill="#9A4993"/>
<path d="M444.278 16.8644C440.364 15.6924 474.611 17.4096 474.444 21.6012C474.277 25.7929 464.605 31.1297 463.773 29.6609C460.946 24.6726 448.191 18.0364 444.278 16.8644Z" fill="#CC0818"/>
<path d="M443.98 16.9491C446.638 13.8592 420.838 32.0897 423.252 35.5282C425.666 38.9667 436.702 38.2607 436.606 36.577C436.28 30.8588 441.321 20.039 443.98 16.9491Z" fill="#CC0818"/>
<path d="M463.858 29.7458C453.701 36.0446 447.783 37.4913 436.616 36.6949C435.213 29.4531 437.63 24.7194 443.809 16.6102C454.73 16.9502 457.953 20.8913 463.858 29.7458Z" fill="#D9D9D9"/>
<path d="M415.921 58.7286L398.98 0L397.83 1.77966L414.261 58.7286H415.921Z" fill="#9A4993"/>
<path d="M399.278 1.86437C395.364 0.692366 429.611 2.40958 429.444 6.60122C429.277 10.7929 419.605 16.1297 418.773 14.6609C415.946 9.67263 403.191 3.03637 399.278 1.86437Z" fill="#CC0818"/>
<path d="M398.98 1.94911C401.638 -1.14079 375.838 17.0897 378.252 20.5282C380.666 23.9667 391.702 23.2607 391.606 21.577C391.28 15.8588 396.321 5.039 398.98 1.94911Z" fill="#CC0818"/>
<path d="M418.858 14.7458C408.701 21.0446 402.783 22.4913 391.616 21.6949C390.213 14.4531 392.63 9.71944 398.809 1.61019C409.73 1.95024 412.953 5.89135 418.858 14.7458Z" fill="#D9D9D9"/>
<path d="M341.079 66.7286L358.02 8L359.17 9.77966L342.739 66.7286H341.079Z" fill="#9A4993"/>
<path d="M357.722 9.86437C361.636 8.69237 327.389 10.4096 327.556 14.6012C327.723 18.7929 337.395 24.1297 338.227 22.6609C341.054 17.6726 353.809 11.0364 357.722 9.86437Z" fill="#CC0818"/>
<path d="M358.02 9.94911C355.362 6.85921 381.162 25.0897 378.748 28.5282C376.334 31.9667 365.298 31.2607 365.394 29.577C365.72 23.8588 360.679 13.039 358.02 9.94911Z" fill="#CC0818"/>
<path d="M338.142 22.7458C348.299 29.0446 354.217 30.4913 365.384 29.6949C366.787 22.4531 364.37 17.7194 358.191 9.61019C347.27 9.95024 344.047 13.8913 338.142 22.7458Z" fill="#D9D9D9"/>
<path d="M634.079 58.7286L651.02 0L652.17 1.77966L635.739 58.7286H634.079Z" fill="#9A4993"/>
<path d="M650.722 1.86437C654.636 0.692366 620.389 2.40958 620.556 6.60122C620.723 10.7929 630.395 16.1297 631.227 14.6609C634.054 9.67263 646.809 3.03637 650.722 1.86437Z" fill="#CC0818"/>
<path d="M651.02 1.94911C648.362 -1.14079 674.162 17.0897 671.748 20.5282C669.334 23.9667 658.298 23.2607 658.394 21.577C658.72 15.8588 653.679 5.039 651.02 1.94911Z" fill="#CC0818"/>
<path d="M631.142 14.7458C641.299 21.0446 647.217 22.4913 658.384 21.6949C659.787 14.4531 657.37 9.71944 651.191 1.61019C640.27 1.95024 637.047 5.89135 631.142 14.7458Z" fill="#D9D9D9"/>
<path d="M187.921 66.7286L170.98 8L169.83 9.77966L186.261 66.7286H187.921Z" fill="#9A4993"/>
<path d="M171.278 9.86437C167.364 8.69237 201.611 10.4096 201.444 14.6012C201.277 18.7929 191.605 24.1297 190.773 22.6609C187.946 17.6726 175.191 11.0364 171.278 9.86437Z" fill="#CC0818"/>
<path d="M170.98 9.94911C173.638 6.85921 147.838 25.0897 150.252 28.5282C152.666 31.9667 163.702 31.2607 163.606 29.577C163.28 23.8588 168.321 13.039 170.98 9.94911Z" fill="#CC0818"/>
<path d="M190.858 22.7458C180.701 29.0446 174.783 30.4913 163.616 29.6949C162.213 22.4531 164.63 17.7194 170.809 9.61019C181.73 9.95024 184.953 13.8913 190.858 22.7458Z" fill="#D9D9D9"/>
<path d="M108.079 58.7286L125.02 0L126.17 1.77966L109.739 58.7286H108.079Z" fill="#9A4993"/>
<path d="M124.722 1.86437C128.636 0.692366 94.3885 2.40958 94.5558 6.60122C94.7226 10.7929 104.395 16.1297 105.227 14.6609C108.054 9.67263 120.809 3.03637 124.722 1.86437Z" fill="#CC0818"/>
<path d="M125.02 1.94911C122.362 -1.14079 148.162 17.0897 145.748 20.5282C143.334 23.9667 132.298 23.2607 132.394 21.577C132.72 15.8588 127.679 5.039 125.02 1.94911Z" fill="#CC0818"/>
<path d="M105.142 14.7458C115.299 21.0446 121.217 22.4913 132.384 21.6949C133.787 14.4531 131.37 9.71944 125.191 1.61019C114.27 1.95024 111.047 5.89135 105.142 14.7458Z" fill="#D9D9D9"/>
</svg>
