<svg width="558" height="521" viewBox="0 0 558 521" fill="none" xmlns="http://www.w3.org/2000/svg">
<path d="M397.865 143.888C410.104 122.006 469.066 120.108 482.972 93.9488C496.878 67.7891 476.842 122.334 448.064 125.942C419.285 129.551 414.553 173.897 381.18 182.489C347.808 191.08 385.626 165.77 397.865 143.888Z" fill="#EEC259"/>
<path d="M402.219 360.498C425.89 368.76 437.975 426.502 466.149 435.665C494.322 444.828 437.131 434.546 428.591 406.828C420.051 379.11 375.555 382.133 361.312 350.753C347.068 319.374 378.548 352.235 402.219 360.498Z" fill="#EEC259"/>
<path d="M173.23 360.498C149.558 368.76 137.473 426.502 109.3 435.665C81.1269 444.828 138.318 434.546 146.858 406.828C155.398 379.11 199.894 382.133 214.137 350.753C228.38 319.374 196.901 352.235 173.23 360.498Z" fill="#EEC259"/>
<path d="M290.639 414.65C300.922 437.516 267.319 486.003 280.044 512.757C292.769 539.51 260.899 490.923 275.146 465.659C289.393 440.396 256.595 410.174 269.578 378.253C282.56 346.331 280.356 391.784 290.639 414.65Z" fill="#EEC259"/>
<path d="M343.947 372.266C361.254 390.407 345.702 447.313 366.605 468.307C387.509 489.3 341.285 454.089 346.312 425.524C351.34 396.959 310.354 379.375 311.973 344.953C313.592 310.53 326.641 354.126 343.947 372.266Z" fill="#EEC259"/>
<path d="M229.592 372.266C212.285 390.407 227.837 447.313 206.934 468.307C186.03 489.3 232.254 454.089 227.227 425.524C222.199 396.959 263.185 379.375 261.566 344.953C259.947 310.53 246.899 354.126 229.592 372.266Z" fill="#EEC259"/>
<path d="M155.385 302.237C130.556 305.721 107.435 359.994 78.0147 363.482C48.5949 366.971 106.693 368.048 120.478 342.53C134.264 317.011 177.314 328.66 197.407 300.663C217.501 272.667 180.213 298.753 155.385 302.237Z" fill="#EEC259"/>
<path d="M165.867 209.994C151.041 189.776 92.2898 195.114 75.2846 170.855C58.2794 146.595 84.8448 198.275 113.849 198.332C142.852 198.389 152.98 241.822 187.154 246.261C221.328 250.7 180.694 230.212 165.867 209.994Z" fill="#EEC259"/>
<path d="M247.416 135.134C251.515 110.4 206.638 72.1087 212.105 42.9915C217.572 13.8743 199.174 68.9927 219.403 89.7774C239.633 110.562 215.645 148.16 236.353 175.705C257.061 203.25 243.317 159.869 247.416 135.134Z" fill="#EEC259"/>
<path d="M335.14 146.134C331.041 121.4 375.918 83.1087 370.451 53.9915C364.984 24.8743 383.382 79.9927 363.153 100.777C342.923 121.562 366.911 159.16 346.203 186.705C325.495 214.25 339.239 170.869 335.14 146.134Z" fill="#EEC259"/>
<path d="M392.915 228.166C405.414 206.433 464.395 205.241 478.613 179.249C492.831 153.258 472.144 207.559 443.324 210.823C414.505 214.087 409.242 258.373 375.769 266.564C342.296 274.755 380.415 249.9 392.915 228.166Z" fill="#EEC259"/>
<path d="M406.236 288.806C431.296 289.6 460.119 341.072 489.744 341.377C519.368 341.682 461.723 349 445.273 325.112C428.824 301.224 387.276 317.434 364.288 291.76C341.301 266.087 381.177 288.013 406.236 288.806Z" fill="#EEC259"/>
<path d="M293.639 106.157C303.922 83.291 270.319 34.8045 283.044 8.05078C295.769 -18.703 263.899 29.8849 278.146 55.1484C292.393 80.4119 259.595 110.633 272.578 142.555C285.56 174.476 283.356 129.023 293.639 106.157Z" fill="#EEC259"/>
<path d="M106.157 254.615C83.291 244.332 34.8045 277.936 8.05078 265.21C-18.703 252.485 29.8849 284.356 55.1484 270.108C80.4119 255.861 110.633 288.659 142.555 275.677C174.476 262.694 129.023 264.898 106.157 254.615Z" fill="#EEC259"/>
<path d="M451.65 254.615C474.516 244.332 523.003 277.936 549.757 265.21C576.51 252.485 527.922 284.356 502.659 270.108C477.395 255.861 447.174 288.659 415.253 275.677C383.331 262.694 428.784 264.898 451.65 254.615Z" fill="#EEC259"/>
<path d="M159.378 130.659C137.572 118.286 136.036 59.3135 109.963 45.247C83.8893 31.1804 138.31 51.5513 141.741 80.3514C145.173 109.152 189.489 114.156 197.875 147.581C206.261 181.006 181.184 143.032 159.378 130.659Z" fill="#EEC259"/>
<ellipse cx="283" cy="264.5" rx="166" ry="166.5" fill="#EEC259"/>
</svg>
